<mxfile host="Electron" agent="Mozilla/5.0 (Windows NT 10.0; Win64; x64) AppleWebKit/537.36 (KHTML, like Gecko) draw.io/28.1.2 Chrome/138.0.7204.243 Electron/37.4.0 Safari/537.36" version="28.1.2">
  <diagram name="PÃ¡gina-1" id="ZadjOkcLf7EnKgmny4hh">
    <mxGraphModel dx="1226" dy="736" grid="0" gridSize="10" guides="1" tooltips="1" connect="1" arrows="1" fold="1" page="1" pageScale="1" pageWidth="827" pageHeight="1169" math="0" shadow="0">
      <root>
        <mxCell id="0" />
        <mxCell id="1" parent="0" />
        <mxCell id="-dcp2A-LHlMscJzcyqZ9-1" value="co.com.poo.shoppingcart" style="shape=folder;fontStyle=1;spacingTop=10;tabWidth=40;tabHeight=14;tabPosition=left;html=1;whiteSpace=wrap;fillColor=#fad7ac;strokeColor=#b46504;align=left;verticalAlign=top;" parent="1" vertex="1">
          <mxGeometry x="97" y="95" width="1341" height="900" as="geometry" />
        </mxCell>
        <mxCell id="-dcp2A-LHlMscJzcyqZ9-2" value="User" style="shape=umlActor;verticalLabelPosition=bottom;verticalAlign=top;html=1;" parent="1" vertex="1">
          <mxGeometry x="369" y="10" width="30" height="60" as="geometry" />
        </mxCell>
        <mxCell id="-dcp2A-LHlMscJzcyqZ9-5" value="&lt;font style=&quot;font-size: 11px;&quot;&gt;application&lt;/font&gt;" style="shape=folder;fontStyle=1;spacingTop=10;tabWidth=40;tabHeight=14;tabPosition=left;html=1;whiteSpace=wrap;align=left;verticalAlign=top;" parent="1" vertex="1">
          <mxGeometry x="279" y="160" width="210" height="110" as="geometry" />
        </mxCell>
        <mxCell id="-dcp2A-LHlMscJzcyqZ9-10" value="&lt;p style=&quot;margin:0px;margin-top:4px;text-align:center;&quot;&gt;&lt;b&gt;&lt;font style=&quot;font-size: 11px;&quot;&gt;ShoppingCartApp&lt;/font&gt;&lt;/b&gt;&lt;/p&gt;&lt;hr size=&quot;1&quot; style=&quot;border-style:solid;&quot;&gt;&lt;div style=&quot;height:2px;&quot;&gt;&lt;font style=&quot;font-size: 11px;&quot;&gt;+ main(args:String[]): void&lt;/font&gt;&lt;/div&gt;" style="verticalAlign=top;align=left;overflow=fill;html=1;whiteSpace=wrap;" parent="1" vertex="1">
          <mxGeometry x="304" y="200" width="160" height="60" as="geometry" />
        </mxCell>
        <mxCell id="-dcp2A-LHlMscJzcyqZ9-11" value="&lt;div style=&quot;&quot;&gt;&lt;span style=&quot;font-size: 11px;&quot;&gt;usecase&lt;/span&gt;&lt;/div&gt;" style="shape=folder;fontStyle=1;spacingTop=10;tabWidth=40;tabHeight=14;tabPosition=left;html=1;whiteSpace=wrap;align=left;verticalAlign=top;" parent="1" vertex="1">
          <mxGeometry x="130" y="310" width="762" height="246" as="geometry" />
        </mxCell>
        <mxCell id="-dcp2A-LHlMscJzcyqZ9-12" value="&lt;font style=&quot;font-size: 11px;&quot;&gt;service&lt;/font&gt;" style="shape=folder;fontStyle=1;spacingTop=10;tabWidth=40;tabHeight=14;tabPosition=left;html=1;whiteSpace=wrap;align=left;verticalAlign=top;fillColor=#d5e8d4;strokeColor=#82b366;" parent="1" vertex="1">
          <mxGeometry x="225" y="580" width="340" height="386" as="geometry" />
        </mxCell>
        <mxCell id="-dcp2A-LHlMscJzcyqZ9-13" value="model" style="shape=folder;fontStyle=1;spacingTop=10;tabWidth=40;tabHeight=14;tabPosition=left;html=1;whiteSpace=wrap;verticalAlign=top;align=left;fontSize=11;" parent="1" vertex="1">
          <mxGeometry x="938" y="455" width="450" height="420" as="geometry" />
        </mxCell>
        <mxCell id="-dcp2A-LHlMscJzcyqZ9-17" value="&lt;p style=&quot;margin:0px;margin-top:4px;text-align:center;&quot;&gt;&lt;i&gt;&amp;lt;&amp;lt;Interface&amp;gt;&amp;gt;&lt;/i&gt;&lt;br&gt;&lt;b&gt;ProductRepository&lt;/b&gt;&lt;/p&gt;&lt;p style=&quot;margin:0px;margin-left:4px;&quot;&gt;&lt;br&gt;&lt;/p&gt;&lt;hr style=&quot;border-style:solid;&quot;&gt;&lt;p style=&quot;margin:0px;margin-left:4px;&quot;&gt;+ loadProducts()&lt;br&gt;+ getProductByld()&lt;/p&gt;" style="verticalAlign=top;align=left;overflow=fill;html=1;whiteSpace=wrap;fontSize=11;" parent="1" vertex="1">
          <mxGeometry x="422.75" y="630" width="130" height="100" as="geometry" />
        </mxCell>
        <mxCell id="ADmoMWXmYnEcQVbY7G2Z-13" style="edgeStyle=orthogonalEdgeStyle;rounded=0;orthogonalLoop=1;jettySize=auto;html=1;endArrow=block;endFill=0;dashed=1;" parent="1" source="-dcp2A-LHlMscJzcyqZ9-18" target="-dcp2A-LHlMscJzcyqZ9-17" edge="1">
          <mxGeometry relative="1" as="geometry" />
        </mxCell>
        <mxCell id="ADmoMWXmYnEcQVbY7G2Z-14" value="Implements" style="edgeLabel;html=1;align=center;verticalAlign=middle;resizable=0;points=[];" parent="ADmoMWXmYnEcQVbY7G2Z-13" vertex="1" connectable="0">
          <mxGeometry x="0.11" y="2" relative="1" as="geometry">
            <mxPoint x="2" y="7" as="offset" />
          </mxGeometry>
        </mxCell>
        <mxCell id="-dcp2A-LHlMscJzcyqZ9-18" value="&lt;p style=&quot;margin:0px;margin-top:4px;text-align:center;&quot;&gt;&lt;b&gt;FileProductManager&lt;/b&gt;&lt;/p&gt;&lt;hr style=&quot;border-style:solid;&quot;&gt;&lt;div style=&quot;height:2px;&quot;&gt;- products: list&lt;br&gt;+ loadFromFile()&lt;br&gt;+ loadProducts&lt;/div&gt;" style="verticalAlign=top;align=left;overflow=fill;html=1;whiteSpace=wrap;fontSize=11;" parent="1" vertex="1">
          <mxGeometry x="422" y="849" width="131.5" height="80" as="geometry" />
        </mxCell>
        <mxCell id="-dcp2A-LHlMscJzcyqZ9-19" value="&lt;p style=&quot;margin:0px;margin-top:4px;text-align:center;&quot;&gt;&lt;i&gt;&amp;lt;&amp;lt;Interface&amp;gt;&amp;gt;&lt;/i&gt;&lt;br&gt;&lt;b&gt;CartRepository&lt;/b&gt;&lt;/p&gt;&lt;hr style=&quot;border-style:solid;&quot;&gt;&lt;p style=&quot;margin:0px;margin-left:4px;&quot;&gt;+ saveCart()&lt;br&gt;+ getCart()&lt;/p&gt;" style="verticalAlign=top;align=left;overflow=fill;html=1;whiteSpace=wrap;fontSize=11;" parent="1" vertex="1">
          <mxGeometry x="236" y="630" width="150" height="100" as="geometry" />
        </mxCell>
        <mxCell id="ADmoMWXmYnEcQVbY7G2Z-15" value="Implements" style="edgeStyle=orthogonalEdgeStyle;rounded=0;orthogonalLoop=1;jettySize=auto;html=1;dashed=1;endArrow=block;endFill=0;" parent="1" source="-dcp2A-LHlMscJzcyqZ9-20" target="-dcp2A-LHlMscJzcyqZ9-19" edge="1">
          <mxGeometry relative="1" as="geometry" />
        </mxCell>
        <mxCell id="-dcp2A-LHlMscJzcyqZ9-20" value="&lt;p style=&quot;margin:0px;margin-top:4px;text-align:center;&quot;&gt;&lt;b&gt;InMemoryCartManager&lt;/b&gt;&lt;/p&gt;&lt;hr style=&quot;border-style:solid;&quot;&gt;&lt;div style=&quot;height:2px;&quot;&gt;- cart: Cart&lt;br&gt;+ saveCart()&lt;br&gt;+ getCart()&lt;/div&gt;" style="verticalAlign=top;align=left;overflow=fill;html=1;whiteSpace=wrap;fontSize=11;" parent="1" vertex="1">
          <mxGeometry x="236" y="849" width="150" height="80" as="geometry" />
        </mxCell>
        <mxCell id="-dcp2A-LHlMscJzcyqZ9-21" value="products.txt" style="whiteSpace=wrap;html=1;shape=mxgraph.basic.document;fontSize=11;" parent="1" vertex="1">
          <mxGeometry x="279" y="1024" width="80" height="90" as="geometry" />
        </mxCell>
        <mxCell id="AfTSVCdibDW0rTK00T7q-3" value="Containts" style="edgeStyle=orthogonalEdgeStyle;rounded=0;orthogonalLoop=1;jettySize=auto;html=1;" edge="1" parent="1" source="-dcp2A-LHlMscJzcyqZ9-23" target="-dcp2A-LHlMscJzcyqZ9-22">
          <mxGeometry relative="1" as="geometry" />
        </mxCell>
        <mxCell id="-dcp2A-LHlMscJzcyqZ9-22" value="&lt;p style=&quot;margin:0px;margin-top:4px;text-align:center;&quot;&gt;&lt;b&gt;Product&lt;/b&gt;&lt;/p&gt;&lt;hr style=&quot;border-style:solid;&quot;&gt;&lt;div style=&quot;height:2px;&quot;&gt;- id: Integer&lt;br&gt;- name: String&lt;br&gt;&lt;br&gt;&lt;/div&gt;&lt;div style=&quot;height:2px;&quot;&gt;&lt;br&gt;&lt;/div&gt;&lt;div style=&quot;height:2px;&quot;&gt;&lt;br&gt;&lt;/div&gt;&lt;div style=&quot;height:2px;&quot;&gt;&lt;br&gt;&lt;/div&gt;&lt;div style=&quot;height:2px;&quot;&gt;&lt;br&gt;&lt;/div&gt;&lt;div style=&quot;height:2px;&quot;&gt;&lt;br&gt;&lt;/div&gt;&lt;div style=&quot;height:2px;&quot;&gt;&lt;br&gt;&lt;/div&gt;&lt;div style=&quot;height:2px;&quot;&gt;&lt;br&gt;&lt;/div&gt;&lt;div style=&quot;height:2px;&quot;&gt;&lt;br&gt;&lt;/div&gt;&lt;div style=&quot;height:2px;&quot;&gt;&lt;br&gt;&lt;/div&gt;&lt;div style=&quot;height:2px;&quot;&gt;&lt;br&gt;&lt;/div&gt;&lt;div style=&quot;height:2px;&quot;&gt;&lt;br&gt;&lt;/div&gt;&lt;div style=&quot;height:2px;&quot;&gt;&lt;br&gt;&lt;/div&gt;&lt;div style=&quot;height:2px;&quot;&gt;&lt;br&gt;&lt;/div&gt;&lt;div style=&quot;height:2px;&quot;&gt;&lt;span style=&quot;background-color: transparent; color: light-dark(rgb(0, 0, 0), rgb(255, 255, 255));&quot;&gt;- category: String&lt;br&gt;- price: Double&lt;/span&gt;&lt;/div&gt;&lt;div style=&quot;height:2px;&quot;&gt;&lt;br&gt;&lt;/div&gt;&lt;div style=&quot;height:2px;&quot;&gt;&lt;br&gt;&lt;/div&gt;&lt;div style=&quot;height:2px;&quot;&gt;&lt;br&gt;&lt;/div&gt;&lt;div style=&quot;height:2px;&quot;&gt;&lt;br&gt;&lt;/div&gt;&lt;div style=&quot;height:2px;&quot;&gt;&lt;br&gt;&lt;/div&gt;&lt;div style=&quot;height:2px;&quot;&gt;&lt;br&gt;&lt;/div&gt;&lt;div style=&quot;height:2px;&quot;&gt;&lt;br&gt;&lt;/div&gt;&lt;div style=&quot;height:2px;&quot;&gt;&lt;br&gt;&lt;/div&gt;&lt;div style=&quot;height:2px;&quot;&gt;&lt;br&gt;&lt;/div&gt;&lt;div style=&quot;height:2px;&quot;&gt;&lt;br&gt;&lt;/div&gt;&lt;div style=&quot;height:2px;&quot;&gt;&lt;br&gt;&lt;/div&gt;&lt;div style=&quot;height:2px;&quot;&gt;&lt;br&gt;&lt;/div&gt;&lt;div style=&quot;height:2px;&quot;&gt;&lt;br&gt;&lt;/div&gt;&lt;div style=&quot;height:2px;&quot;&gt;&lt;br&gt;&lt;/div&gt;&lt;div style=&quot;height:2px;&quot;&gt;&lt;br&gt;&lt;/div&gt;&lt;div style=&quot;height:2px;&quot;&gt;&lt;br&gt;&lt;/div&gt;&lt;div style=&quot;height:2px;&quot;&gt;&lt;br&gt;&lt;/div&gt;&lt;div style=&quot;height:2px;&quot;&gt;&lt;br&gt;&lt;/div&gt;&lt;div style=&quot;height:2px;&quot;&gt;&lt;br&gt;&lt;/div&gt;&lt;hr style=&quot;border-style:solid;&quot;&gt;&lt;div style=&quot;height:2px;&quot;&gt;+ getters, setters&lt;br&gt;+ toString()&lt;/div&gt;&lt;div style=&quot;height:2px;&quot;&gt;&lt;br&gt;&lt;/div&gt;" style="verticalAlign=top;align=left;overflow=fill;html=1;whiteSpace=wrap;fontSize=11;" parent="1" vertex="1">
          <mxGeometry x="948" y="498" width="140" height="140" as="geometry" />
        </mxCell>
        <mxCell id="-dcp2A-LHlMscJzcyqZ9-23" value="&lt;p style=&quot;margin:0px;margin-top:4px;text-align:center;&quot;&gt;&lt;b&gt;CartItem&lt;/b&gt;&lt;/p&gt;&lt;hr style=&quot;border-style:solid;&quot;&gt;- product: Product&lt;br&gt;- quantity: Integer&lt;br&gt;- subtotal: Double&lt;div style=&quot;height:2px;&quot;&gt;&lt;br&gt;&lt;/div&gt;&lt;div style=&quot;height:2px;&quot;&gt;&lt;br&gt;&lt;/div&gt;&lt;div style=&quot;height:2px;&quot;&gt;&lt;br&gt;&lt;/div&gt;&lt;hr style=&quot;border-style:solid;&quot;&gt;&lt;div style=&quot;height:2px;&quot;&gt;+ calculateSubtotal()&lt;br&gt;+ getters, setters&lt;/div&gt;" style="verticalAlign=top;align=left;overflow=fill;html=1;whiteSpace=wrap;fontSize=11;" parent="1" vertex="1">
          <mxGeometry x="1186" y="498" width="152" height="140" as="geometry" />
        </mxCell>
        <mxCell id="AfTSVCdibDW0rTK00T7q-6" value="Contains" style="edgeStyle=orthogonalEdgeStyle;rounded=0;orthogonalLoop=1;jettySize=auto;html=1;" edge="1" parent="1" source="-dcp2A-LHlMscJzcyqZ9-24" target="-dcp2A-LHlMscJzcyqZ9-23">
          <mxGeometry relative="1" as="geometry">
            <Array as="points">
              <mxPoint x="1025" y="662" />
              <mxPoint x="1262" y="662" />
            </Array>
          </mxGeometry>
        </mxCell>
        <mxCell id="-dcp2A-LHlMscJzcyqZ9-24" value="&lt;p style=&quot;margin:0px;margin-top:4px;text-align:center;&quot;&gt;&lt;b&gt;Cart&lt;/b&gt;&lt;/p&gt;&lt;hr style=&quot;border-style:solid;&quot;&gt;&lt;div style=&quot;height:2px;&quot;&gt;- items: List&amp;lt;CartItem&amp;gt;&lt;br&gt;+ totalAmount: Double&lt;/div&gt;&lt;div style=&quot;height:2px;&quot;&gt;&lt;br&gt;&lt;/div&gt;&lt;div style=&quot;height:2px;&quot;&gt;&lt;br&gt;&lt;/div&gt;&lt;div style=&quot;height:2px;&quot;&gt;&lt;br&gt;&lt;/div&gt;&lt;div style=&quot;height:2px;&quot;&gt;&lt;br&gt;&lt;/div&gt;&lt;div style=&quot;height:2px;&quot;&gt;&lt;br&gt;&lt;/div&gt;&lt;div style=&quot;height:2px;&quot;&gt;&lt;br&gt;&lt;/div&gt;&lt;div style=&quot;height:2px;&quot;&gt;&lt;br&gt;&lt;/div&gt;&lt;div style=&quot;height:2px;&quot;&gt;&lt;br&gt;&lt;/div&gt;&lt;div style=&quot;height:2px;&quot;&gt;&lt;br&gt;&lt;/div&gt;&lt;div style=&quot;height:2px;&quot;&gt;&lt;br&gt;&lt;/div&gt;&lt;div style=&quot;height:2px;&quot;&gt;&lt;br&gt;&lt;/div&gt;&lt;div style=&quot;height:2px;&quot;&gt;&lt;br&gt;&lt;/div&gt;&lt;div style=&quot;height:2px;&quot;&gt;&lt;br&gt;&lt;/div&gt;&lt;div style=&quot;height:2px;&quot;&gt;&lt;br&gt;&lt;/div&gt;&lt;hr style=&quot;border-style:solid;&quot;&gt;&lt;div style=&quot;height:2px;&quot;&gt;+ addItem()&lt;br&gt;+ removeItem()&lt;br&gt;+ calculateTotal()&lt;br&gt;+ clear()&lt;/div&gt;" style="verticalAlign=top;align=left;overflow=fill;html=1;whiteSpace=wrap;fontSize=11;" parent="1" vertex="1">
          <mxGeometry x="955" y="689" width="140" height="140" as="geometry" />
        </mxCell>
        <mxCell id="AfTSVCdibDW0rTK00T7q-7" value="Creates from" style="edgeStyle=orthogonalEdgeStyle;rounded=0;orthogonalLoop=1;jettySize=auto;html=1;" edge="1" parent="1" source="-dcp2A-LHlMscJzcyqZ9-25" target="-dcp2A-LHlMscJzcyqZ9-24">
          <mxGeometry relative="1" as="geometry" />
        </mxCell>
        <mxCell id="-dcp2A-LHlMscJzcyqZ9-25" value="&lt;p style=&quot;margin:0px;margin-top:4px;text-align:center;&quot;&gt;&lt;b&gt;Order&lt;/b&gt;&lt;/p&gt;&lt;hr style=&quot;border-style:solid;&quot;&gt;&lt;div style=&quot;height:2px;&quot;&gt;- orderId: String&lt;br&gt;- date: Date&lt;br&gt;- items: List&lt;br&gt;- subtotal: Double&lt;br&gt;- discount: Double&lt;br&gt;- finalTotal: Double&lt;br&gt;&lt;br&gt;&lt;br&gt;&lt;/div&gt;&lt;div style=&quot;height:2px;&quot;&gt;&lt;br&gt;&lt;/div&gt;&lt;div style=&quot;height:2px;&quot;&gt;&lt;br&gt;&lt;/div&gt;" style="verticalAlign=top;align=left;overflow=fill;html=1;whiteSpace=wrap;fontSize=11;" parent="1" vertex="1">
          <mxGeometry x="1192" y="689" width="152" height="140" as="geometry" />
        </mxCell>
        <mxCell id="zvp0QR7meIjKTvuyxVH3-5" style="edgeStyle=orthogonalEdgeStyle;rounded=0;orthogonalLoop=1;jettySize=auto;html=1;entryX=0.5;entryY=0;entryDx=0;entryDy=0;" parent="1" target="-dcp2A-LHlMscJzcyqZ9-10" edge="1">
          <mxGeometry relative="1" as="geometry">
            <mxPoint x="384" y="90" as="sourcePoint" />
          </mxGeometry>
        </mxCell>
        <mxCell id="zvp0QR7meIjKTvuyxVH3-11" value="" style="endArrow=none;html=1;rounded=0;" parent="1" edge="1">
          <mxGeometry width="50" height="50" relative="1" as="geometry">
            <mxPoint x="391" y="312" as="sourcePoint" />
            <mxPoint x="390" y="260" as="targetPoint" />
          </mxGeometry>
        </mxCell>
        <mxCell id="zvp0QR7meIjKTvuyxVH3-12" value="Use" style="endArrow=classic;html=1;rounded=0;entryX=0.5;entryY=0;entryDx=0;entryDy=0;" parent="1" edge="1" target="ADmoMWXmYnEcQVbY7G2Z-9">
          <mxGeometry x="-0.202" y="1" width="50" height="50" relative="1" as="geometry">
            <mxPoint x="390" y="312" as="sourcePoint" />
            <mxPoint x="550" y="350" as="targetPoint" />
            <Array as="points">
              <mxPoint x="752" y="311" />
            </Array>
            <mxPoint as="offset" />
          </mxGeometry>
        </mxCell>
        <mxCell id="zvp0QR7meIjKTvuyxVH3-13" value="" style="endArrow=classic;html=1;rounded=0;entryX=0.5;entryY=0;entryDx=0;entryDy=0;" parent="1" edge="1">
          <mxGeometry width="50" height="50" relative="1" as="geometry">
            <mxPoint x="392" y="312" as="sourcePoint" />
            <mxPoint x="232" y="350" as="targetPoint" />
            <Array as="points">
              <mxPoint x="233" y="311" />
            </Array>
          </mxGeometry>
        </mxCell>
        <mxCell id="zvp0QR7meIjKTvuyxVH3-15" value="Use" style="edgeLabel;html=1;align=center;verticalAlign=middle;resizable=0;points=[];" parent="zvp0QR7meIjKTvuyxVH3-13" vertex="1" connectable="0">
          <mxGeometry x="-0.1967" y="-2" relative="1" as="geometry">
            <mxPoint as="offset" />
          </mxGeometry>
        </mxCell>
        <mxCell id="zvp0QR7meIjKTvuyxVH3-16" value="Use" style="endArrow=classic;html=1;rounded=0;entryX=0.135;entryY=0.021;entryDx=0;entryDy=0;entryPerimeter=0;" parent="1" edge="1" target="ADmoMWXmYnEcQVbY7G2Z-5">
          <mxGeometry width="50" height="50" relative="1" as="geometry">
            <mxPoint x="391" y="313" as="sourcePoint" />
            <mxPoint x="391" y="350" as="targetPoint" />
          </mxGeometry>
        </mxCell>
        <mxCell id="ADmoMWXmYnEcQVbY7G2Z-16" value="Use" style="edgeStyle=orthogonalEdgeStyle;rounded=0;orthogonalLoop=1;jettySize=auto;html=1;" parent="1" source="ADmoMWXmYnEcQVbY7G2Z-1" target="-dcp2A-LHlMscJzcyqZ9-19" edge="1">
          <mxGeometry x="0.3836" relative="1" as="geometry">
            <Array as="points">
              <mxPoint x="260" y="564" />
              <mxPoint x="311" y="564" />
            </Array>
            <mxPoint as="offset" />
          </mxGeometry>
        </mxCell>
        <mxCell id="ADmoMWXmYnEcQVbY7G2Z-1" value="&lt;b&gt;&lt;font style=&quot;font-size: 10px;&quot;&gt;CartUseCase&lt;/font&gt;&lt;/b&gt;" style="swimlane;fontStyle=1;align=center;verticalAlign=top;childLayout=stackLayout;horizontal=1;startSize=26;horizontalStack=0;resizeParent=1;resizeParentMax=0;resizeLast=0;collapsible=1;marginBottom=0;whiteSpace=wrap;html=1;" parent="1" vertex="1">
          <mxGeometry x="142" y="350" width="160" height="185" as="geometry">
            <mxRectangle x="142" y="350" width="97" height="26" as="alternateBounds" />
          </mxGeometry>
        </mxCell>
        <mxCell id="ADmoMWXmYnEcQVbY7G2Z-2" value="&lt;span style=&quot;font-size: 10px;&quot;&gt;+ addProduct(String id, String name, String category, double price): void&lt;/span&gt;&lt;br style=&quot;font-size: 10px;&quot;&gt;&lt;span style=&quot;font-size: 10px;&quot;&gt;+ updateQuantity(String name, Integer&amp;nbsp;&lt;/span&gt;&lt;span style=&quot;font-size: 11px;&quot;&gt;quantity&lt;/span&gt;&lt;span style=&quot;font-size: 10px;&quot;&gt;): void&lt;/span&gt;&lt;br style=&quot;font-size: 10px;&quot;&gt;&lt;span style=&quot;font-size: 10px;&quot;&gt;+ removeItem(String name): void&lt;/span&gt;&lt;br style=&quot;font-size: 10px;&quot;&gt;&lt;span style=&quot;font-size: 10px;&quot;&gt;+ viewCart(): void&lt;/span&gt;&lt;br style=&quot;font-size: 10px;&quot;&gt;&lt;span style=&quot;font-size: 10px;&quot;&gt;+ clearCart(): void&lt;/span&gt;" style="text;strokeColor=none;fillColor=none;align=left;verticalAlign=top;spacingLeft=4;spacingRight=4;overflow=hidden;rotatable=0;points=[[0,0.5],[1,0.5]];portConstraint=eastwest;whiteSpace=wrap;html=1;" parent="ADmoMWXmYnEcQVbY7G2Z-1" vertex="1">
          <mxGeometry y="26" width="160" height="123" as="geometry" />
        </mxCell>
        <mxCell id="ADmoMWXmYnEcQVbY7G2Z-3" value="" style="line;strokeWidth=1;fillColor=none;align=left;verticalAlign=middle;spacingTop=-1;spacingLeft=3;spacingRight=3;rotatable=0;labelPosition=right;points=[];portConstraint=eastwest;strokeColor=inherit;" parent="ADmoMWXmYnEcQVbY7G2Z-1" vertex="1">
          <mxGeometry y="149" width="160" height="10" as="geometry" />
        </mxCell>
        <mxCell id="ADmoMWXmYnEcQVbY7G2Z-4" value="&lt;span style=&quot;font-size: 10px;&quot;&gt;- cartRepository&lt;/span&gt;" style="text;strokeColor=none;fillColor=none;align=left;verticalAlign=top;spacingLeft=4;spacingRight=4;overflow=hidden;rotatable=0;points=[[0,0.5],[1,0.5]];portConstraint=eastwest;whiteSpace=wrap;html=1;" parent="ADmoMWXmYnEcQVbY7G2Z-1" vertex="1">
          <mxGeometry y="159" width="160" height="26" as="geometry" />
        </mxCell>
        <mxCell id="ADmoMWXmYnEcQVbY7G2Z-5" value="&lt;b&gt;&lt;font style=&quot;font-size: 11px;&quot;&gt;OrderUseCase&lt;/font&gt;&lt;/b&gt;" style="swimlane;fontStyle=1;align=center;verticalAlign=top;childLayout=stackLayout;horizontal=1;startSize=26;horizontalStack=0;resizeParent=1;resizeParentMax=0;resizeLast=0;collapsible=1;marginBottom=0;whiteSpace=wrap;html=1;" parent="1" vertex="1">
          <mxGeometry x="366" y="369" width="160" height="147" as="geometry" />
        </mxCell>
        <mxCell id="ADmoMWXmYnEcQVbY7G2Z-6" value="&lt;span style=&quot;font-size: 11px;&quot;&gt;+ closeOrder()&lt;/span&gt;&lt;br style=&quot;font-size: 11px;&quot;&gt;&lt;span style=&quot;font-size: 11px;&quot;&gt;+ cancelOrder()&lt;/span&gt;&lt;br style=&quot;font-size: 11px;&quot;&gt;&lt;span style=&quot;font-size: 11px;&quot;&gt;+ applyDiscount()&lt;/span&gt;&lt;br style=&quot;font-size: 11px;&quot;&gt;&lt;span style=&quot;font-size: 11px;&quot;&gt;+ calculateTotal()&lt;/span&gt;" style="text;strokeColor=none;fillColor=none;align=left;verticalAlign=top;spacingLeft=4;spacingRight=4;overflow=hidden;rotatable=0;points=[[0,0.5],[1,0.5]];portConstraint=eastwest;whiteSpace=wrap;html=1;" parent="ADmoMWXmYnEcQVbY7G2Z-5" vertex="1">
          <mxGeometry y="26" width="160" height="72" as="geometry" />
        </mxCell>
        <mxCell id="ADmoMWXmYnEcQVbY7G2Z-7" value="" style="line;strokeWidth=1;fillColor=none;align=left;verticalAlign=middle;spacingTop=-1;spacingLeft=3;spacingRight=3;rotatable=0;labelPosition=right;points=[];portConstraint=eastwest;strokeColor=inherit;" parent="ADmoMWXmYnEcQVbY7G2Z-5" vertex="1">
          <mxGeometry y="98" width="160" height="8" as="geometry" />
        </mxCell>
        <mxCell id="ADmoMWXmYnEcQVbY7G2Z-8" value="&lt;span style=&quot;font-size: 11px;&quot;&gt;- orderRepository&lt;/span&gt;&lt;br style=&quot;font-size: 11px;&quot;&gt;&lt;span style=&quot;font-size: 11px;&quot;&gt;- cartRepository&lt;/span&gt;" style="text;strokeColor=none;fillColor=none;align=left;verticalAlign=top;spacingLeft=4;spacingRight=4;overflow=hidden;rotatable=0;points=[[0,0.5],[1,0.5]];portConstraint=eastwest;whiteSpace=wrap;html=1;" parent="ADmoMWXmYnEcQVbY7G2Z-5" vertex="1">
          <mxGeometry y="106" width="160" height="41" as="geometry" />
        </mxCell>
        <mxCell id="ADmoMWXmYnEcQVbY7G2Z-17" value="Use" style="edgeStyle=orthogonalEdgeStyle;rounded=0;orthogonalLoop=1;jettySize=auto;html=1;" parent="1" source="ADmoMWXmYnEcQVbY7G2Z-9" target="-dcp2A-LHlMscJzcyqZ9-17" edge="1">
          <mxGeometry x="0.6344" relative="1" as="geometry">
            <mxPoint as="offset" />
            <Array as="points">
              <mxPoint x="752" y="573" />
              <mxPoint x="488" y="573" />
            </Array>
          </mxGeometry>
        </mxCell>
        <mxCell id="ADmoMWXmYnEcQVbY7G2Z-9" value="&lt;b&gt;&lt;font style=&quot;font-size: 11px;&quot;&gt;CatalogUseCase&lt;/font&gt;&lt;/b&gt;" style="swimlane;fontStyle=1;align=center;verticalAlign=top;childLayout=stackLayout;horizontal=1;startSize=26;horizontalStack=0;resizeParent=1;resizeParentMax=0;resizeLast=0;collapsible=1;marginBottom=0;whiteSpace=wrap;html=1;" parent="1" vertex="1">
          <mxGeometry x="672" y="361" width="160" height="110" as="geometry" />
        </mxCell>
        <mxCell id="ADmoMWXmYnEcQVbY7G2Z-10" value="&lt;span style=&quot;font-size: 11px;&quot;&gt;+ getProducts()&lt;/span&gt;&lt;br style=&quot;font-size: 11px;&quot;&gt;&lt;span style=&quot;font-size: 11px;&quot;&gt;+ getProductByld()&lt;/span&gt;" style="text;strokeColor=none;fillColor=none;align=left;verticalAlign=top;spacingLeft=4;spacingRight=4;overflow=hidden;rotatable=0;points=[[0,0.5],[1,0.5]];portConstraint=eastwest;whiteSpace=wrap;html=1;" parent="ADmoMWXmYnEcQVbY7G2Z-9" vertex="1">
          <mxGeometry y="26" width="160" height="39" as="geometry" />
        </mxCell>
        <mxCell id="ADmoMWXmYnEcQVbY7G2Z-11" value="" style="line;strokeWidth=1;fillColor=none;align=left;verticalAlign=middle;spacingTop=-1;spacingLeft=3;spacingRight=3;rotatable=0;labelPosition=right;points=[];portConstraint=eastwest;strokeColor=inherit;" parent="ADmoMWXmYnEcQVbY7G2Z-9" vertex="1">
          <mxGeometry y="65" width="160" height="8" as="geometry" />
        </mxCell>
        <mxCell id="ADmoMWXmYnEcQVbY7G2Z-12" value="&lt;div style=&quot;height: 2px;&quot;&gt;&lt;span style=&quot;font-size: 11px; line-height: 11px;&quot;&gt;- productRepository&lt;/span&gt;&amp;nbsp;&lt;/div&gt;" style="text;strokeColor=none;fillColor=none;align=left;verticalAlign=top;spacingLeft=4;spacingRight=4;overflow=hidden;rotatable=0;points=[[0,0.5],[1,0.5]];portConstraint=eastwest;whiteSpace=wrap;html=1;" parent="ADmoMWXmYnEcQVbY7G2Z-9" vertex="1">
          <mxGeometry y="73" width="160" height="37" as="geometry" />
        </mxCell>
        <mxCell id="AfTSVCdibDW0rTK00T7q-2" value="Use" style="edgeStyle=orthogonalEdgeStyle;rounded=0;orthogonalLoop=1;jettySize=auto;html=1;entryX=-0.009;entryY=0.658;entryDx=0;entryDy=0;entryPerimeter=0;" edge="1" parent="1" source="ADmoMWXmYnEcQVbY7G2Z-1" target="ADmoMWXmYnEcQVbY7G2Z-6">
          <mxGeometry relative="1" as="geometry" />
        </mxCell>
        <mxCell id="AfTSVCdibDW0rTK00T7q-8" style="edgeStyle=orthogonalEdgeStyle;rounded=0;orthogonalLoop=1;jettySize=auto;html=1;entryX=0;entryY=0;entryDx=0;entryDy=217;entryPerimeter=0;" edge="1" parent="1" source="-dcp2A-LHlMscJzcyqZ9-11" target="-dcp2A-LHlMscJzcyqZ9-13">
          <mxGeometry relative="1" as="geometry" />
        </mxCell>
        <mxCell id="AfTSVCdibDW0rTK00T7q-9" style="edgeStyle=orthogonalEdgeStyle;rounded=0;orthogonalLoop=1;jettySize=auto;html=1;entryX=0;entryY=0;entryDx=0;entryDy=318.5;entryPerimeter=0;" edge="1" parent="1" source="-dcp2A-LHlMscJzcyqZ9-12" target="-dcp2A-LHlMscJzcyqZ9-13">
          <mxGeometry relative="1" as="geometry" />
        </mxCell>
        <mxCell id="AfTSVCdibDW0rTK00T7q-10" style="edgeStyle=orthogonalEdgeStyle;rounded=0;orthogonalLoop=1;jettySize=auto;html=1;entryX=0;entryY=0;entryDx=245;entryDy=14;entryPerimeter=0;" edge="1" parent="1" source="-dcp2A-LHlMscJzcyqZ9-5" target="-dcp2A-LHlMscJzcyqZ9-13">
          <mxGeometry relative="1" as="geometry" />
        </mxCell>
      </root>
    </mxGraphModel>
  </diagram>
</mxfile>
